<svg width="1080" height="1920" viewBox="0 0 1080 1920" fill="none" xmlns="http://www.w3.org/2000/svg">
<g clip-path="url(#clip0_292_1744)">
<path d="M1080 0H0V1920H1080V0Z" fill="#FFF4E6"/>
<g opacity="0.53">
<path d="M98.18 0H0V1920H98.18V0Z" fill="#C9D0D8"/>
<path d="M16.9004 0V1920.56" stroke="#FFF4E6" stroke-width="8.528" stroke-miterlimit="10"/>
<path d="M294.54 0H196.36V1920H294.54V0Z" fill="#C9D0D8"/>
<path d="M213.261 0V1920.56" stroke="#FFF4E6" stroke-width="8.528" stroke-miterlimit="10"/>
<path d="M490.91 0H392.73V1920H490.91V0Z" fill="#C9D0D8"/>
<path d="M409.62 0V1920.56" stroke="#FFF4E6" stroke-width="8.528" stroke-miterlimit="10"/>
<path d="M687.27 0H589.09V1920H687.27V0Z" fill="#C9D0D8"/>
<path d="M605.99 0V1920.56" stroke="#FFF4E6" stroke-width="8.528" stroke-miterlimit="10"/>
<path d="M883.63 0H785.45V1920H883.63V0Z" fill="#C9D0D8"/>
<path d="M802.351 0V1920.56" stroke="#FFF4E6" stroke-width="8.528" stroke-miterlimit="10"/>
<path d="M1080 0H981.82V1920H1080V0Z" fill="#C9D0D8"/>
<path d="M998.71 0V1920.56" stroke="#FFF4E6" stroke-width="8.528" stroke-miterlimit="10"/>
</g>
</g>
<defs>
<clipPath id="clip0_292_1744">
<rect width="1080" height="1920" fill="white"/>
</clipPath>
</defs>
</svg>
