<svg width="671" height="474" viewBox="0 0 671 474" fill="none" xmlns="http://www.w3.org/2000/svg">
<path d="M207.98 326.16L194.36 374.92H182.83L173.68 340.2L164.11 374.92L152.65 374.99L139.52 326.16H150L158.59 364.02L168.51 326.16H179.41L188.77 363.81L197.43 326.16H207.98Z" fill="#3A5220"/>
<path d="M232.5 334.05V346.27H248.92V354.02H232.5V366.94H251.01V374.9H222.72V326.07H251.01V334.03H232.5V334.05Z" fill="#3A5220"/>
<path d="M278.04 367.16H294.11V374.91H268.26V326.15H278.04V367.16Z" fill="#3A5220"/>
<path d="M309.58 337.58C311.75 333.79 314.7 330.83 318.45 328.71C322.2 326.59 326.4 325.53 331.06 325.53C336.51 325.53 341.28 326.93 345.38 329.72C349.48 332.51 352.34 336.38 353.97 341.32H342.72C341.6 338.99 340.03 337.24 338 336.08C335.97 334.92 333.63 334.33 330.98 334.33C328.14 334.33 325.61 334.99 323.4 336.32C321.19 337.65 319.46 339.52 318.23 341.94C317 344.36 316.38 347.2 316.38 350.46C316.38 353.67 317 356.5 318.23 358.95C319.46 361.39 321.19 363.28 323.4 364.61C325.61 365.94 328.14 366.6 330.98 366.6C333.63 366.6 335.97 366.01 338 364.82C340.03 363.63 341.6 361.88 342.72 359.55H353.97C352.34 364.53 349.49 368.41 345.41 371.18C341.33 373.95 336.55 375.34 331.06 375.34C326.4 375.34 322.2 374.28 318.45 372.16C314.7 370.04 311.74 367.1 309.58 363.32C307.41 359.55 306.33 355.26 306.33 350.47C306.33 345.67 307.42 341.38 309.58 337.58Z" fill="#3A5220"/>
<path d="M380.8 372.19C376.98 370.05 373.95 367.08 371.72 363.28C369.48 359.49 368.37 355.19 368.37 350.39C368.37 345.64 369.49 341.37 371.72 337.57C373.96 333.78 376.98 330.81 380.8 328.66C384.62 326.52 388.81 325.45 393.37 325.45C397.98 325.45 402.18 326.52 405.98 328.66C409.77 330.8 412.78 333.77 414.99 337.57C417.2 341.37 418.31 345.64 418.31 350.39C418.31 355.19 417.2 359.48 414.99 363.28C412.78 367.08 409.76 370.04 405.94 372.19C402.12 374.33 397.93 375.4 393.37 375.4C388.81 375.4 384.61 374.33 380.8 372.19ZM401.12 364.68C403.35 363.35 405.1 361.46 406.36 358.99C407.62 356.52 408.25 353.66 408.25 350.4C408.25 347.14 407.62 344.29 406.36 341.84C405.1 339.4 403.36 337.52 401.12 336.22C398.88 334.92 396.3 334.26 393.37 334.26C390.44 334.26 387.84 334.91 385.58 336.22C383.32 337.52 381.56 339.4 380.31 341.84C379.05 344.29 378.42 347.14 378.42 350.4C378.42 353.66 379.05 356.52 380.31 358.99C381.57 361.46 383.32 363.36 385.58 364.68C387.84 366.01 390.43 366.67 393.37 366.67C396.31 366.67 398.89 366.01 401.12 364.68Z" fill="#3A5220"/>
<path d="M487.11 326.16V374.92H477.33V343.2L464.27 374.91H456.87L443.74 343.2V374.91H433.96V326.15H445.07L460.58 362.4L476.09 326.15H487.11V326.16Z" fill="#3A5220"/>
<path d="M514.91 334.05V346.27H531.33V354.02H514.91V366.94H533.42V374.9H505.13V326.07H533.42V334.03H514.91V334.05Z" fill="#3A5220"/>
<path d="M36.2898 424.021V431.91H23.2998V472.771H13.5198V431.91H0.529785V424.021H36.2898Z" fill="#3A5220"/>
<path d="M61.8499 470.051C58.0299 467.911 54.9999 464.941 52.7699 461.141C50.5299 457.351 49.4199 453.051 49.4199 448.251C49.4199 443.501 50.5399 439.231 52.7699 435.431C55.0099 431.641 58.0299 428.671 61.8499 426.521C65.6699 424.381 69.8599 423.311 74.4199 423.311C79.0299 423.311 83.2299 424.381 87.0299 426.521C90.8199 428.661 93.8299 431.631 96.0399 435.431C98.2499 439.231 99.3599 443.501 99.3599 448.251C99.3599 453.051 98.2499 457.341 96.0399 461.141C93.8299 464.941 90.8099 467.901 86.9899 470.051C83.1699 472.191 78.9799 473.261 74.4199 473.261C69.8599 473.261 65.6699 472.191 61.8499 470.051ZM82.1799 462.541C84.4099 461.211 86.1599 459.321 87.4199 456.851C88.6799 454.381 89.3099 451.521 89.3099 448.261C89.3099 445.001 88.6799 442.151 87.4199 439.701C86.1599 437.261 84.4199 435.381 82.1799 434.081C79.9399 432.781 77.3599 432.121 74.4299 432.121C71.4999 432.121 68.8999 432.771 66.6399 434.081C64.3799 435.381 62.6199 437.261 61.3699 439.701C60.1099 442.151 59.4799 445.001 59.4799 448.261C59.4799 451.521 60.1099 454.381 61.3699 456.851C62.6299 459.321 64.3799 461.221 66.6399 462.541C68.8999 463.871 71.4899 464.531 74.4299 464.531C77.3699 464.531 79.9399 463.871 82.1799 462.541Z" fill="#3A5220"/>
<path d="M173.72 446.44C172.49 448.72 170.55 450.56 167.92 451.96C165.29 453.36 161.97 454.05 157.97 454.05H149.8V472.77H140.02V424.01H157.97C161.74 424.01 164.96 424.66 167.61 425.97C170.26 427.28 172.26 429.07 173.58 431.35C174.91 433.63 175.57 436.22 175.57 439.1C175.57 441.72 174.95 444.16 173.72 446.44ZM163.56 444.31C164.86 443.08 165.52 441.34 165.52 439.11C165.52 434.36 162.87 431.99 157.56 431.99H149.81V446.17H157.56C160.25 446.16 162.25 445.55 163.56 444.31Z" fill="#3A5220"/>
<path d="M200.65 465.02H216.72V472.77H190.87V424.01H200.65V465.02Z" fill="#3A5220"/>
<path d="M261.21 463.49H241.79L238.58 472.78H228.31L245.84 423.95H257.23L274.76 472.78H264.42L261.21 463.49ZM258.56 455.66L251.5 435.26L244.44 455.66H258.56Z" fill="#3A5220"/>
<path d="M331.41 472.78H321.63L299.49 439.32V472.78H289.71V423.95H299.49L321.63 457.48V423.95H331.41V472.78Z" fill="#3A5220"/>
<path d="M382.61 424.021V431.91H369.62V472.771H359.84V431.91H346.85V424.021H382.61Z" fill="#3A5220"/>
<path d="M451.28 424.021V472.781H441.5V441.07L428.44 472.781H421.04L407.91 441.07V472.781H398.13V424.021H409.24L424.75 460.271L440.26 424.021H451.28Z" fill="#3A5220"/>
<path d="M499.2 463.49H479.78L476.57 472.78H466.3L483.83 423.95H495.22L512.75 472.78H502.41L499.2 463.49ZM496.54 455.66L489.48 435.26L482.42 455.66H496.54Z" fill="#3A5220"/>
<path d="M580.85 424.021V472.781H571.07V441.07L558.01 472.781H550.61L537.48 441.07V472.781H527.7V424.021H538.81L554.32 460.271L569.83 424.021H580.85Z" fill="#3A5220"/>
<path d="M628.77 463.49H609.35L606.14 472.78H595.87L613.4 423.95H624.79L642.32 472.78H631.98L628.77 463.49ZM626.12 455.66L619.06 435.26L612 455.66H626.12Z" fill="#3A5220"/>
<path d="M660.52 471.62C659.38 470.53 658.81 469.16 658.81 467.53C658.81 465.9 659.38 464.54 660.52 463.44C661.66 462.35 663.12 461.8 664.89 461.8C666.61 461.8 668.03 462.35 669.15 463.44C670.27 464.53 670.83 465.9 670.83 467.53C670.83 469.16 670.27 470.52 669.15 471.62C668.03 472.71 666.61 473.26 664.89 473.26C663.11 473.26 661.66 472.72 660.52 471.62ZM669.91 423.18L668.79 456.92H660.55L659.36 423.18H669.91Z" fill="#3A5220"/>
<path d="M341.92 256.92C309.74 256.92 279.51 243.57 256.79 219.34C234.12 195.17 221.64 163.04 221.64 128.87C221.64 94.7103 234.12 62.5803 256.79 38.4003C279.51 14.1703 309.75 0.820312 341.92 0.820312C374.09 0.820312 404.33 14.1703 427.05 38.4003C449.72 62.5703 462.2 94.7003 462.2 128.87C462.2 163.04 449.72 195.16 427.05 219.34C404.33 243.57 374.1 256.92 341.92 256.92Z" fill="#FFF4E6"/>
<path d="M341.92 256.92C309.74 256.92 279.51 243.57 256.79 219.34C234.12 195.17 221.64 163.04 221.64 128.87C221.64 94.7103 234.12 62.5803 256.79 38.4003C279.51 14.1703 309.75 0.820312 341.92 0.820312C374.09 0.820312 404.33 14.1703 427.05 38.4003C449.72 62.5703 462.2 94.7003 462.2 128.87C462.2 163.04 449.72 195.16 427.05 219.34C404.33 243.57 374.1 256.92 341.92 256.92ZM341.92 2.62032C310.41 2.62032 280.77 15.7203 258.45 39.5203C236.08 63.3803 223.76 95.1103 223.76 128.87C223.76 162.63 236.08 194.36 258.45 218.22C280.76 242.02 310.4 255.12 341.92 255.12C373.44 255.12 403.07 242.02 425.39 218.22C447.76 194.36 460.08 162.63 460.08 128.87C460.08 95.1103 447.76 63.3803 425.39 39.5203C403.08 15.7303 373.44 2.62032 341.92 2.62032Z" fill="#FFF4E6"/>
<path d="M341.92 249.55C313.71 249.55 286.72 237.75 265.92 216.31C243.48 193.19 231.13 162.13 231.13 128.86C231.13 95.5899 243.49 64.5299 265.92 41.4099C286.72 19.9799 313.71 8.16992 341.92 8.16992C370.13 8.16992 397.12 19.9699 417.92 41.4099C440.36 64.5299 452.71 95.5899 452.71 128.86C452.71 162.13 440.35 193.18 417.92 216.31C397.12 237.75 370.13 249.55 341.92 249.55ZM341.92 12.4999C315.26 12.4999 289.67 23.7399 269.86 44.1599C248.17 66.5099 236.22 96.5899 236.22 128.87C236.22 161.14 248.17 191.23 269.86 213.58C289.67 234 315.26 245.24 341.92 245.24C368.58 245.24 394.17 234 413.98 213.58C435.67 191.23 447.62 161.14 447.62 128.87C447.62 96.5999 435.67 66.5099 413.98 44.1599C394.17 23.7399 368.58 12.4999 341.92 12.4999Z" fill="#3A5220"/>
<path d="M341.92 253.001C312.31 253.001 284.09 240.701 262.46 218.371C239.49 194.661 226.84 162.871 226.84 128.861C226.84 94.8507 239.49 63.0707 262.47 39.3507C284.1 17.0207 312.32 4.7207 341.93 4.7207C371.54 4.7207 399.76 17.0207 421.39 39.3507C444.36 63.0607 457.02 94.8507 457.02 128.861C457.02 162.861 444.37 194.651 421.4 218.371C399.76 240.711 371.53 253.001 341.92 253.001ZM341.92 5.7507C312.67 5.7507 284.79 17.9207 263.39 40.0107C240.59 63.5407 228.04 95.1007 228.04 128.871C228.04 162.641 240.59 194.201 263.39 217.731C284.79 239.821 312.68 251.981 341.92 251.981C371.16 251.981 399.05 239.811 420.45 217.731C443.25 194.201 455.8 162.641 455.8 128.871C455.8 95.1007 443.24 63.5407 420.45 40.0107C399.06 17.9207 371.17 5.7507 341.92 5.7507Z" fill="#3A5220"/>
<path d="M314.729 167.371C316.299 168.421 317.869 169.461 319.459 170.531C319.069 172.161 318.769 173.391 318.279 175.431C319.479 173.751 320.209 172.731 321.199 171.331C322.929 171.991 324.699 172.671 326.309 173.291C327.859 182.731 317.959 196.821 306.279 201.491C301.929 195.541 304.319 174.701 314.729 167.371Z" fill="#94301A"/>
<path d="M341.75 208.081C335.46 199.591 334.58 186.441 339.48 179.491C340.83 179.831 342.33 180.201 343.99 180.621C344.1 182.101 344.2 183.371 344.34 185.331C344.87 183.531 345.21 182.391 345.59 181.061C347.36 181.051 349.01 181.041 350.55 181.031C353.72 190.271 349.05 201.171 341.75 208.081Z" fill="#94301A"/>
<path d="M297.009 125.931C296.819 127.521 296.619 129.281 296.389 131.231C295.209 131.471 294.219 131.671 292.759 131.971C294.179 132.371 295.189 132.671 296.559 133.061C296.769 134.751 296.989 136.501 297.179 138.111C290.759 142.491 274.989 139.031 268.459 131.471C273.599 125.021 290.769 121.401 297.009 125.931Z" fill="#94301A"/>
<path d="M290.27 182.231C291.25 179.241 292.17 176.221 293.27 173.271C293.5 172.671 294.35 172.061 295.02 171.891C300 170.641 304.51 168.471 308.55 165.291C308.89 165.021 309.41 164.971 310.48 164.581C309.92 165.631 309.68 166.151 309.38 166.641C306.96 170.591 304.54 174.541 302.1 178.491C301.65 179.221 301.26 180.311 300.6 180.531C297.47 181.561 294.25 182.351 291.07 183.221C290.81 182.901 290.54 182.561 290.27 182.231Z" fill="#94301A"/>
<path d="M332.84 176.971C332.69 178.661 332.39 180.361 332.41 182.051C332.44 184.341 332.54 186.661 332.9 188.921C333.72 194.101 331.77 197.931 326.88 200.301C323.4 196.811 323.24 191.681 326.06 187.871C327.95 185.311 329.32 182.371 330.85 179.561C331.31 178.711 331.55 177.731 331.89 176.811C332.21 176.861 332.53 176.921 332.84 176.971Z" fill="#94301A"/>
<path d="M275.419 147.5C277.719 145.73 279.969 143.89 282.349 142.24C282.919 141.85 283.939 141.94 284.719 142.05C288.799 142.61 292.869 143.25 296.939 143.87C297.349 143.93 297.749 144.11 298.539 144.35C297.839 144.89 297.479 145.26 297.049 145.49C293.559 147.32 290.089 149.21 286.529 150.9C285.459 151.41 284.009 151.74 282.909 151.45C280.399 150.8 277.999 149.72 275.559 148.82C275.509 148.38 275.459 147.94 275.419 147.5Z" fill="#94301A"/>
<path d="M301.21 150.061C301.81 151.771 302.4 153.471 303.01 155.201C301.77 156.221 300.84 156.991 299.28 158.271C301.16 157.681 302.31 157.311 303.88 156.821C304.82 158.331 305.78 159.861 306.66 161.261C302.41 169.371 286.72 174.441 275.1 171.281C275.19 164.231 289.02 149.671 301.21 150.061Z" fill="#94301A"/>
<path d="M373.44 119.551C380.57 117.191 387.72 114.881 394.84 112.461C398.59 111.181 402.24 109.631 406.01 108.411C406.99 108.091 408.23 108.571 409.35 108.681C409.05 109.671 409.02 110.931 408.38 111.591C406.77 113.271 404.88 114.701 403.09 116.221C397.22 121.181 390.25 123.641 382.89 125.391C379.6 126.171 376.43 127.451 373.23 128.581C372.59 128.811 372.05 129.351 371.68 130.391C372.32 130.301 372.99 130.311 373.59 130.111C380.3 127.911 386.98 125.591 393.73 123.501C395.35 123.001 397.69 121.641 398.65 124.031C398.94 124.741 396.88 126.861 395.5 127.681C390.92 130.411 386.37 133.211 380.85 133.961C377.14 134.471 373.51 135.661 369.86 136.601C369.34 136.741 368.9 137.201 368.42 137.511C368.51 137.811 368.61 138.121 368.7 138.421C370.44 138.091 372.19 137.801 373.92 137.411C377.87 136.511 381.78 135.451 385.76 134.701C386.75 134.511 387.91 135.211 388.95 135.911C381.47 143.111 369.41 143.691 361.22 146.021C363.94 142.601 368.04 136.991 369.98 132.301C371.91 127.651 370.77 125.951 366.15 125.331C368.05 123.071 370.09 120.851 371.88 118.441C373.77 115.911 374.84 113.091 373.04 110.031C371.13 106.781 367.96 105.601 364.55 106.381C359.16 107.631 353.89 109.451 348.58 111.051C347.34 111.421 346.11 111.871 344.58 111.851C347.4 109.211 350.23 106.581 353.04 103.941C365 92.7107 377.02 81.5407 388.86 70.1907C392.79 66.4207 396.15 62.0507 399.97 58.1407C401.22 56.8607 403.01 55.9107 404.72 55.3207C406.64 54.6607 407.58 55.8907 407.23 57.7807C407.03 58.8607 406.44 59.8807 405.98 60.9107C402.92 67.8207 396.96 72.0607 391.43 76.7107C385.73 81.5107 380.13 86.4206 374.49 91.2906C373.94 91.7606 373.44 92.2807 372.91 92.7807C373.06 92.9807 373.21 93.1907 373.36 93.3907C375.61 91.7407 377.95 90.2106 380.08 88.4306C383.91 85.2206 387.5 81.7207 391.41 78.6107C396.49 74.5707 401.77 70.7807 406.97 66.8907C407.27 66.6707 407.6 66.3607 407.94 66.3307C409.37 66.1907 410.81 66.1507 412.24 66.0707C412.05 67.4607 412.21 69.0307 411.61 70.2107C407.68 77.8907 401.18 82.7407 393.74 86.8007C386.14 90.9607 378.87 95.7407 371.47 100.251C370.77 100.681 370.11 101.181 369.67 102.181C370.36 101.911 371.1 101.731 371.72 101.361C380.69 95.9807 389.6 90.4907 398.63 85.2007C402.77 82.7807 407.08 80.6306 411.44 78.6206C412.5 78.1306 414.05 78.6907 415.37 78.7707C415.1 79.9907 415.13 81.4007 414.5 82.3907C413.45 84.0407 412.01 85.4506 410.67 86.9006C404.26 93.8506 396.91 99.3207 387.78 102.331C384.05 103.561 380.61 105.671 377.06 107.421C376.35 107.771 375.72 108.291 375.05 108.731C375.16 108.991 375.27 109.241 375.38 109.501C376.69 109.021 378.03 108.621 379.29 108.051C387.36 104.391 395.39 100.651 403.49 97.0507C405.72 96.0607 408.1 95.3706 410.47 94.7906C411.22 94.6106 412.39 95.0107 412.94 95.5707C413.26 95.8907 412.97 97.2706 412.52 97.8106C408.79 102.261 405.41 107.141 399.48 109.081C391.42 111.721 383.37 114.411 375.34 117.121C374.48 117.411 373.7 117.971 372.89 118.411C373.07 118.811 373.25 119.181 373.44 119.551Z" fill="#94301A"/>
<path d="M389.789 209.771C389.519 209.781 389.219 209.761 388.919 209.711C386.289 209.271 383.649 208.161 381.659 206.651C373.209 200.211 361.629 175.891 352.629 175.021C346.299 174.411 340.029 171.161 333.419 169.311C311.279 163.111 302.189 147.011 302.739 125.641C302.869 120.751 302.049 116.321 300.249 112.111C297.259 105.121 296.409 98.9706 297.579 92.7406C297.899 91.0406 297.229 89.2506 296.569 87.5206C296.429 87.1506 296.289 86.7805 296.169 86.4205C295.489 84.4705 294.689 82.5306 293.919 80.6606C294.129 80.4806 294.119 80.4905 294.329 80.3105C298.199 82.8005 302.569 83.3906 306.829 83.9706C307.619 84.0806 308.409 84.1806 309.199 84.3006C316.499 85.4006 333.639 90.3805 336.569 112.891L334.859 113.131C332.759 113.421 330.659 113.711 328.559 114.031C328.429 114.051 328.299 114.061 328.159 114.061L327.469 114.081C327.009 114.101 326.059 114.131 325.479 114.821C325.109 115.271 324.969 115.891 325.089 116.681C325.279 117.981 328.079 118.301 328.849 118.271C329.049 118.261 329.239 118.241 329.409 118.201C338.599 116.211 347.509 114.101 354.999 112.311C356.529 111.941 358.049 111.501 359.529 111.071C361.159 110.591 362.849 110.101 364.529 109.721C364.989 109.621 365.439 109.601 365.849 109.541C370.819 108.841 371.219 113.671 369.019 116.111C366.699 118.691 364.189 121.181 361.759 123.591C360.839 124.501 359.929 125.401 359.019 126.311C357.579 127.751 355.239 129.461 353.549 130.691C355.169 131.061 362.209 129.991 365.039 129.361C365.729 129.211 368.639 129.111 367.929 131.481C366.809 135.231 363.799 137.871 361.419 141.001C359.999 142.861 358.359 144.561 356.589 146.091C354.739 147.691 352.719 149.591 351.079 151.021C351.069 151.251 363.049 149.331 364.219 149.121C365.139 150.901 366.069 152.671 366.999 154.451C369.239 158.721 368.679 157.991 370.789 162.421C374.639 170.491 376.849 175.591 393.279 187.361C396.319 189.541 399.509 191.641 401.679 194.611C402.229 195.371 402.219 197.511 401.669 198.251C401.249 198.811 399.969 199.311 398.859 199.351C398.569 199.361 398.299 199.341 398.099 199.281C394.339 198.231 391.369 196.991 389.029 195.501C385.399 193.181 381.789 190.681 379.049 187.311C377.759 185.721 373.989 178.251 371.809 178.961C371.349 179.111 371.079 179.621 371.069 180.101C371.059 180.581 371.249 181.051 371.449 181.491C375.089 189.261 382.709 195.391 388.659 201.401C389.729 202.481 390.699 203.981 391.559 205.861C392.089 207.021 392.129 208.111 391.669 208.841C391.289 209.411 390.649 209.741 389.789 209.771ZM307.719 87.8306C307.039 87.8506 306.419 88.1906 305.819 88.5206C305.589 88.6506 305.359 88.7805 305.129 88.8705L304.299 89.2206L304.709 90.0206C304.819 90.2306 304.909 90.4805 305.009 90.7305C305.299 91.4905 305.629 92.3505 306.409 92.6105C306.629 92.6905 306.879 92.7206 307.139 92.7106C307.669 92.6906 308.209 92.5005 308.839 92.2805C309.219 92.1505 309.639 92.0005 310.119 91.8705L311.329 91.5506L310.559 90.5506C310.259 90.1706 310.009 89.7806 309.789 89.4406C309.249 88.6006 308.819 87.9405 308.059 87.8405C307.949 87.8405 307.839 87.8306 307.719 87.8306Z" fill="#94301A"/>
<path d="M287.609 56.7902C287.269 57.4102 286.989 58.0502 286.809 58.7202C285.579 64.2202 289.449 68.7902 293.759 71.6602C294.419 72.0802 294.5 73.3302 294.67 74.2502C294.75 74.7102 294.169 75.2702 294.099 75.8002C293.609 79.9602 289.85 85.0102 286.42 87.2302C283.43 89.1602 280.33 90.9902 280.95 95.2702C281.28 97.7502 281.569 100.33 282.459 102.61C283.419 105.09 285.819 105.19 287.549 103.14C288.799 101.7 290.32 100.34 290.98 98.5802C291.77 96.5502 293.509 94.6002 291.869 91.9602C291.029 90.4602 290.609 88.2002 291.079 86.6002C292.199 83.0202 295.739 83.0502 297.839 80.5102C299.649 78.3302 300.359 75.4102 302.599 73.5502C303.979 72.4102 306.489 71.1402 307.679 71.6802C311.019 73.2202 313.829 72.4402 315.749 69.3902C316.969 67.4302 319.15 65.8702 321.2 64.6802C322.6 63.9002 322.789 63.6302 322.119 62.2702C319.589 57.4502 315.239 57.7002 311.269 59.0802C309.339 59.7402 307.91 62.3402 306.479 64.2602C305.949 64.9202 306.139 65.6902 305.829 66.4002C305.529 67.0802 304.819 67.5202 304.269 68.0502C302.719 69.5402 301.149 71.2202 300.049 73.0602C298.819 75.1102 297.539 77.4102 295.809 79.0802C295.519 79.3602 295.169 79.5902 294.819 79.7702C294.949 79.4002 294.919 79.0302 295.109 78.6602C296.379 75.2902 297.769 72.0702 298.879 68.6602C299.919 65.6702 299.569 62.8802 297.159 60.4502C295.079 58.2502 293.339 55.7702 291.309 53.5702C291.079 53.2702 289.84 53.3602 289.7 53.6302C288.99 54.6402 288.209 55.6802 287.609 56.7902Z" fill="#94301A"/>
</svg>
